<?xml version="1.0" encoding="utf-8"?>
<!-- Generator: Adobe Illustrator 26.1.0, SVG Export Plug-In . SVG Version: 6.00 Build 0)  -->
<svg version="1.1" id="Layer_1" xmlns="http://www.w3.org/2000/svg" xmlns:xlink="http://www.w3.org/1999/xlink" x="0px" y="0px"
	 viewBox="0 0 15 15" style="enable-background:new 0 0 15 15;" xml:space="preserve">
<style type="text/css">
	.st0{fill:#F03E2B;}
</style>
<path class="st0" d="M13.1,2.9L8.6,0.4C7.9,0,7.1,0,6.4,0.4L1.9,2.9c-0.7,0.4-1.1,1.2-1.1,2v5.2c0,0.8,0.4,1.6,1.1,2l4.5,2.6
	c0.4,0.2,0.7,0.3,1.1,0.3c0.4,0,0.8-0.1,1.1-0.3l4.5-2.6c0.7-0.4,1.1-1.2,1.1-2V4.9C14.2,4.1,13.8,3.4,13.1,2.9z M6.7,1.5
	C7,1.3,7.2,1.3,7.5,1.3c0.3,0,0.5,0.1,0.8,0.2l4,2.3c0.5,0.3,0.8,0.8,0.8,1.4v4.7c0,0.6-0.3,1.1-0.8,1.4l-4,2.3
	c-0.5,0.3-1.1,0.3-1.6,0l-4-2.3c-0.5-0.3-0.8-0.8-0.8-1.4V5.2c0-0.6,0.3-1.1,0.8-1.4L6.7,1.5z"/>
</svg>
