<?xml version="1.0" encoding="utf-8"?>
<!-- Generator: Adobe Illustrator 26.3.1, SVG Export Plug-In . SVG Version: 6.00 Build 0)  -->
<svg version="1.1" id="Layer_1" xmlns="http://www.w3.org/2000/svg" xmlns:xlink="http://www.w3.org/1999/xlink" x="0px" y="0px"
	 viewBox="0 0 449 412" style="enable-background:new 0 0 449 412;" xml:space="preserve">
<style type="text/css">
	.st0{fill:#FFFFFF;}
</style>
<path class="st0" d="M444.9,61.9v288.2c0,32.7-26.4,59.1-59.1,59.1H183.6c-32.7,0-59.1-26.4-59.1-59.1v-49.3l43.6,9.3l0,38.4
	c0,9.3,7.8,17.1,17.1,17.1h199.1c9.3,0,17.1-7.8,17.1-17.1l0-283.5c0-9.3-7.8-17.1-17.1-17.1H185.2c-9.3,0-17.1,7.8-17.1,17.1v92.7
	l-43.6-3.1v-38.9c-87.1,40.4-66.9,60.7-18.7,71.6c6.2,1.6,12.4,3.1,18.7,3.1c14,1.6,29.6,3.1,43.6,4.7c9.3,1.6,18.7,1.6,28,1.6
	c31.1,1.6,54.4,1.6,54.4,1.6v-48.2c0-7.8,9.3-6.2,12.4-3.1l90.2,62.2l35.8,24.9c3.1,3.1,3.1,7.8,0,12.4l-35.8,24.9l-43.6,31.1
	l-45.1,31.1c-1.6,1.6-4.7,3.1-6.2,3.1s-6.2,0-6.2-4.7V293c-23.3-4.7-45.1-7.8-65.3-12.4c-6.2-1.6-10.9-3.1-17.1-3.1
	c-15.6-3.1-31.1-7.8-43.6-10.9c-10.9-3.1-20.2-6.2-29.6-9.3c-224-79.3,29.6-172.7,29.6-172.7l0-22.7c0-32.7,26.4-59.1,59.1-59.1
	h202.2C418.5,2.8,444.9,29.2,444.9,61.9L444.9,61.9z"/>
</svg>
