<?xml version="1.0" encoding="utf-8"?>
<!-- Generator: Adobe Illustrator 26.1.0, SVG Export Plug-In . SVG Version: 6.00 Build 0)  -->
<svg version="1.1" id="Layer_1" xmlns="http://www.w3.org/2000/svg" xmlns:xlink="http://www.w3.org/1999/xlink" x="0px" y="0px"
	 viewBox="0 0 40 35" style="enable-background:new 0 0 40 35;" xml:space="preserve">
<style type="text/css">
	.st0{fill:#EF3E2B;}
</style>
<g>
	<path class="st0" d="M1.2,18.7c0.5-2.3,1.3-4.5,2.3-6.7c1-2.2,2.1-4.3,3.5-6.3c1.4-2,3-3.8,4.8-5.4L18.4,5c-2,3.1-3.6,6.2-4.6,9.5
		s-1.5,6.7-1.5,10.4v9.7H0.4v-9.5C0.4,23.1,0.7,20.9,1.2,18.7z M22.4,18.7c0.5-2.3,1.3-4.5,2.3-6.7c1-2.2,2.1-4.3,3.5-6.3
		c1.4-2,3-3.8,4.8-5.4L39.6,5c-2,3.1-3.6,6.2-4.6,9.5s-1.5,6.7-1.5,10.4v9.7H21.6v-9.5C21.6,23.1,21.9,20.9,22.4,18.7z"/>
</g>
</svg>
