<?xml version="1.0" encoding="utf-8"?>
<!-- Generator: Adobe Illustrator 26.1.0, SVG Export Plug-In . SVG Version: 6.00 Build 0)  -->
<svg version="1.1" id="Layer_1" xmlns="http://www.w3.org/2000/svg" xmlns:xlink="http://www.w3.org/1999/xlink" x="0px" y="0px"
	 viewBox="0 0 96 105" style="enable-background:new 0 0 96 105;" xml:space="preserve">
<style type="text/css">
	.st0{fill:#E9E9EA;}
</style>
<g>
	<path class="st0" d="M87.5,20.5L56,2.3c-4.9-2.9-11.1-2.9-16,0L8.5,20.5c-4.9,2.9-8,8.2-8,13.9v36.4c0,5.7,3.1,11,8,13.9L40,102.9
		c2.5,1.4,5.2,2.1,8,2.1c2.8,0,5.5-0.7,8-2.1l31.5-18.2c4.9-2.9,8-8.2,8-13.9V34.4C95.6,28.6,92.5,23.3,87.5,20.5z M91.7,70.8
		c0,4.3-2.3,8.4-6.1,10.6L54.1,99.5c-3.8,2.2-8.4,2.2-12.2,0L10.4,81.3c-3.8-2.2-6.1-6.2-6.1-10.6V34.4c0-4.3,2.3-8.4,6.1-10.6
		L41.9,5.6C43.8,4.5,45.9,4,48,4c2.1,0,4.2,0.5,6.1,1.6l31.5,18.2c3.8,2.2,6.1,6.2,6.1,10.6V70.8z"/>
	<g>
		<path class="st0" d="M28.4,32.7c-2.4-0.3-4.5,1.8-4.2,4.2c0.2,1.7,1.6,3,3.2,3.2c2.4,0.3,4.5-1.8,4.2-4.2
			C31.4,34.2,30,32.9,28.4,32.7z"/>
		<path class="st0" d="M82.2,57.7c-1.7-3.4-4.6-5.9-8.3-7.1c-3.6-1.2-7.5-0.9-10.9,0.8c-2.6,1.3-4.7,3.3-6,5.7c-0.3,0.5-1,0.5-1.3,0
			L43.9,36.5l0,0l-0.4-0.9c-3.1-5.8-9.1-9.4-15.7-9.4c-6.6,0-12.6,3.6-15.7,9.4l0,0.1c-0.3,0.5-0.3,1.1,0,1.6l0,0.1
			c3.1,5.8,9.1,9.4,15.7,9.4c3.8,0,7.4-1.2,10.4-3.4c0.4-0.3,0.8,0.2,0.6,0.5L27.5,63.5c-0.5,0.9,0.1,2.1,1.2,2.1h25.7
			c0.5,0,0.9,0.4,1,0.9c0.2,1.4,0.7,2.8,1.3,4c1.7,3.4,4.6,5.9,8.3,7.2c1.5,0.5,3,0.7,4.5,0.7c2.1,0,4.1-0.5,6.1-1.4
			c3.2-1.5,5.7-4.1,7.1-7.4C84.3,65.7,84.1,61.4,82.2,57.7z M27.8,43.1c-4.7,0-9-2.3-11.6-6c-0.2-0.3-0.2-0.8,0-1.1
			c2.6-3.8,6.9-6,11.6-6c4.6,0,8.9,2.3,11.6,6c0.3,0.4,0.3,0.8,0,1.2C36.7,40.8,32.4,43.1,27.8,43.1z M50.8,61.2H36.1
			c-0.8,0-1.2-0.8-0.9-1.4l7.4-12.6c0.4-0.6,1.3-0.6,1.7,0l7.4,12.6C52.1,60.4,51.6,61.2,50.8,61.2z M59.4,61.5
			c0.1-0.2,0.1-0.5,0.2-0.7c0.9-2.6,2.7-4.8,5.2-6c1.5-0.7,3-1.1,4.7-1.1c1.1,0,2.2,0.2,3.3,0.5c2.6,0.9,4.8,2.7,6,5.2
			c0.1,0.2,0.2,0.4,0.3,0.6c0.1,0.3-0.1,0.7-0.4,0.7c-0.9,0.2-1.6,0.5-2.2,0.8c-0.9,0.4-1.8,0.8-3.6,0.8c-1.8,0-2.6-0.4-3.6-0.8
			c-0.9-0.4-1.9-0.9-3.7-0.9c-1.9,0-2.8,0.4-3.7,0.9c-0.6,0.3-1.1,0.5-1.9,0.7C59.6,62.2,59.3,61.9,59.4,61.5z M79.4,67.4
			c-0.9,2.6-2.7,4.8-5.2,6c-2.5,1.2-5.3,1.5-8,0.6c-2.6-0.9-4.8-2.7-6-5.2c-0.4-0.8-0.7-1.7-0.9-2.6c0-0.2,0.1-0.4,0.3-0.5
			c0.2,0,0.4-0.1,0.5-0.1l0.5-0.1l0,0c0.6-0.2,1-0.4,1.4-0.6c0.9-0.4,1.8-0.8,3.6-0.8c1.8,0,2.6,0.4,3.6,0.8
			c0.9,0.4,1.9,0.9,3.7,0.9c1.9,0,2.8-0.4,3.7-0.9c0.7-0.3,1.4-0.7,2.6-0.8c0.4,0,0.7,0.3,0.7,0.6C79.8,65.6,79.7,66.5,79.4,67.4z"
			/>
	</g>
</g>
</svg>
