<?xml version="1.0" encoding="utf-8"?>
<!-- Generator: Adobe Illustrator 26.1.0, SVG Export Plug-In . SVG Version: 6.00 Build 0)  -->
<svg version="1.1" id="Layer_1" xmlns="http://www.w3.org/2000/svg" xmlns:xlink="http://www.w3.org/1999/xlink" x="0px" y="0px"
	 viewBox="0 0 15 15" style="enable-background:new 0 0 15 15;" xml:space="preserve">
<style type="text/css">
	.st0{fill:#1A1A1A;}
</style>
<path class="st0" d="M7.5,1.4c2,0,2.2,0,3,0c0.7,0,1.1,0.2,1.4,0.3c0.3,0.1,0.6,0.3,0.9,0.6c0.3,0.3,0.4,0.5,0.6,0.9
	c0.1,0.3,0.2,0.7,0.3,1.4c0,0.8,0,1,0,3s0,2.2,0,3c0,0.7-0.2,1.1-0.3,1.4c-0.1,0.3-0.3,0.6-0.6,0.9c-0.3,0.3-0.5,0.4-0.9,0.6
	c-0.3,0.1-0.7,0.2-1.4,0.3c-0.8,0-1,0-3,0s-2.2,0-3,0c-0.7,0-1.1-0.2-1.4-0.3c-0.3-0.1-0.6-0.3-0.9-0.6c-0.3-0.3-0.4-0.5-0.6-0.9
	c-0.1-0.3-0.2-0.7-0.3-1.4c0-0.8,0-1,0-3s0-2.2,0-3c0-0.7,0.2-1.1,0.3-1.4C1.8,2.8,2,2.5,2.3,2.3C2.5,2,2.8,1.8,3.1,1.7
	c0.3-0.1,0.7-0.2,1.4-0.3C5.3,1.4,5.5,1.4,7.5,1.4 M7.5,0.1c-2,0-2.3,0-3.1,0c-0.8,0-1.3,0.2-1.8,0.3C2.1,0.6,1.7,0.9,1.3,1.3
	S0.6,2.1,0.5,2.6c-0.2,0.5-0.3,1-0.3,1.8c0,0.8,0,1,0,3.1s0,2.3,0,3.1c0,0.8,0.2,1.3,0.3,1.8c0.2,0.5,0.4,0.9,0.9,1.3
	s0.8,0.7,1.3,0.9c0.5,0.2,1,0.3,1.8,0.3c0.8,0,1,0,3.1,0s2.3,0,3.1,0c0.8,0,1.3-0.2,1.8-0.3c0.5-0.2,0.9-0.4,1.3-0.9
	s0.7-0.8,0.9-1.3c0.2-0.5,0.3-1,0.3-1.8c0-0.8,0-1,0-3.1s0-2.3,0-3.1c0-0.8-0.2-1.3-0.3-1.8c-0.2-0.5-0.4-0.9-0.9-1.3
	s-0.8-0.7-1.3-0.9c-0.5-0.2-1-0.3-1.8-0.3C9.8,0.1,9.5,0.1,7.5,0.1z M7.5,3.7c-2.1,0-3.8,1.7-3.8,3.8s1.7,3.8,3.8,3.8
	s3.8-1.7,3.8-3.8S9.6,3.7,7.5,3.7z M7.5,10C6.1,10,5,8.9,5,7.5C5,6.1,6.1,5,7.5,5S10,6.1,10,7.5C10,8.9,8.9,10,7.5,10z M12.4,3.5
	c0,0.5-0.4,0.9-0.9,0.9S10.6,4,10.6,3.5s0.4-0.9,0.9-0.9S12.4,3,12.4,3.5z"/>
</svg>
