<?xml version="1.0" encoding="utf-8"?>
<!-- Generator: Adobe Illustrator 26.1.0, SVG Export Plug-In . SVG Version: 6.00 Build 0)  -->
<svg version="1.1" id="Layer_1" xmlns="http://www.w3.org/2000/svg" xmlns:xlink="http://www.w3.org/1999/xlink" x="0px" y="0px"
	 viewBox="0 0 17 15" style="enable-background:new 0 0 17 15;" xml:space="preserve">
<style type="text/css">
	.st0{fill:#1A1A1A;}
</style>
<path class="st0" d="M9.7,4.2c1.2-0.5,2.5-0.5,2.4,1.2c-0.1,1.1-2,4.2-2.7,4.2c-1,0-1.5-3.9-1.9-6.4C7.2,1.2,6.4,0.4,5,0.5
	c-1.2,0.1-3,2-4.9,3.7l0.8,1c1.3-0.9,1.7-1.3,2.4,0.5c1.4,3.6,1.8,9.1,4.3,9.1c2.6,0,6.7-5,8.4-8.6C19.4-0.8,11.6-1.9,9.7,4.2z"/>
</svg>
